<svg xmlns="http://www.w3.org/2000/svg" viewBox="0 0 1180 410" role="img" aria-labelledby="t d"><title id="t">外部出站调用管线</title><desc id="d">数据库事务不包住不确定的远程 HTTP</desc><defs><marker id="a" viewBox="0 0 10 10" refX="9" refY="5" markerWidth="7" markerHeight="7" orient="auto"><path d="M0 0L10 5L0 10Z" fill="#607d8b"/></marker></defs><rect width="1180" height="410" rx="18" fill="#f7faf9"/><g font-family="PingFang SC,Microsoft YaHei,sans-serif" fill="#17342c"><text x="590" y="42" text-anchor="middle" font-size="24" font-weight="700">外部出站调用管线</text><rect x="25" y="120" width="175" height="110" rx="8" fill="#edf3fa" stroke="#607d8b"/><text x="112.5" y="176" text-anchor="middle" font-size="12" font-weight="700">Operation ID</text><rect x="216" y="120" width="175" height="110" rx="8" fill="#e8f5f0" stroke="#607d8b"/><text x="303.5" y="176" text-anchor="middle" font-size="12" font-weight="700">Credential</text><rect x="407" y="120" width="175" height="110" rx="8" fill="#fff8e6" stroke="#607d8b"/><text x="494.5" y="176" text-anchor="middle" font-size="12" font-weight="700">Map + Sign</text><rect x="598" y="120" width="175" height="110" rx="8" fill="#f3eff8" stroke="#607d8b"/><text x="685.5" y="176" text-anchor="middle" font-size="12" font-weight="700">Isolated Pool</text><rect x="789" y="120" width="175" height="110" rx="8" fill="#fbecef" stroke="#607d8b"/><text x="876.5" y="176" text-anchor="middle" font-size="12" font-weight="700">Parse Result</text><rect x="980" y="120" width="175" height="110" rx="8" fill="#fff" stroke="#607d8b"/><text x="1067.5" y="176" text-anchor="middle" font-size="12" font-weight="700">CAS State</text><path d="M200 175H209" stroke="#607d8b" stroke-width="2" marker-end="url(#a)"/><path d="M391 175H400" stroke="#607d8b" stroke-width="2" marker-end="url(#a)"/><path d="M582 175H591" stroke="#607d8b" stroke-width="2" marker-end="url(#a)"/><path d="M773 175H782" stroke="#607d8b" stroke-width="2" marker-end="url(#a)"/><path d="M964 175H973" stroke="#607d8b" stroke-width="2" marker-end="url(#a)"/><rect x="100" y="300" width="980" height="60" rx="8" fill="#fff" stroke="#a5b8b2"/><text x="590" y="337" text-anchor="middle" font-size="12" font-weight="700">数据库事务不包住不确定的远程 HTTP</text></g></svg>
